<?xml version="1.0" encoding="utf-8" standalone="no"?>
<!DOCTYPE svg PUBLIC "-//W3C//DTD SVG 1.1//EN"
  "http://www.w3.org/Graphics/SVG/1.1/DTD/svg11.dtd">
<!-- Created with matplotlib (http://matplotlib.org/) -->
<svg height="720pt" version="1.1" viewBox="0 0 1800 720" width="1800pt" xmlns="http://www.w3.org/2000/svg" xmlns:xlink="http://www.w3.org/1999/xlink">
 <defs>
  <style type="text/css">
*{stroke-linecap:butt;stroke-linejoin:round;}
  </style>
 </defs>
 <g id="figure_1">
  <g id="patch_1">
   <path d="
M0 720
L1800 720
L1800 0
L0 0
z
" style="fill:#ffffff;"/>
  </g>
  <g id="axes_1">
   <g id="LineCollection_1">
    <defs>
     <path d="
M1312.63 -551.977
L868.952 -356.719" id="C0_0_2c17470329"/>
     <path d="
M762.715 -617.143
L868.952 -356.719" id="C0_1_9c33495fa3"/>
     <path d="
M257.143 -257.25
L868.952 -356.719" id="C0_2_2a92ecdeb9"/>
     <path d="
M1526.68 -339.567
L868.952 -356.719" id="C0_3_1a561530c6"/>
     <path d="
M681.006 -102.857
L868.952 -356.719" id="C0_4_2cc80a2b3f"/>
     <path d="
M868.952 -356.719
L1246.78 -139.993" id="C0_5_fa55adcae4"/>
     <path d="
M868.952 -356.719
L293.953 -485.593" id="C0_6_e7a1517513"/>
    </defs>
    <g clip-path="url(#pf9996adbd3)">
     <use style="fill:none;stroke:#0000ff;stroke-dasharray:6.000000,6.000000;stroke-dashoffset:0.0;" x="0.0" xlink:href="#C0_0_2c17470329" y="720.0"/>
    </g>
    <g clip-path="url(#pf9996adbd3)">
     <use style="fill:none;stroke:#0000ff;stroke-dasharray:6.000000,6.000000;stroke-dashoffset:0.0;" x="0.0" xlink:href="#C0_1_9c33495fa3" y="720.0"/>
    </g>
    <g clip-path="url(#pf9996adbd3)">
     <use style="fill:none;stroke:#0000ff;stroke-dasharray:6.000000,6.000000;stroke-dashoffset:0.0;" x="0.0" xlink:href="#C0_2_2a92ecdeb9" y="720.0"/>
    </g>
    <g clip-path="url(#pf9996adbd3)">
     <use style="fill:none;stroke:#0000ff;stroke-dasharray:6.000000,6.000000;stroke-dashoffset:0.0;" x="0.0" xlink:href="#C0_3_1a561530c6" y="720.0"/>
    </g>
    <g clip-path="url(#pf9996adbd3)">
     <use style="fill:none;stroke:#0000ff;stroke-dasharray:6.000000,6.000000;stroke-dashoffset:0.0;" x="0.0" xlink:href="#C0_4_2cc80a2b3f" y="720.0"/>
    </g>
    <g clip-path="url(#pf9996adbd3)">
     <use style="fill:none;stroke:#0000ff;stroke-dasharray:6.000000,6.000000;stroke-dashoffset:0.0;" x="0.0" xlink:href="#C0_5_fa55adcae4" y="720.0"/>
    </g>
    <g clip-path="url(#pf9996adbd3)">
     <use style="fill:none;stroke:#0000ff;stroke-dasharray:6.000000,6.000000;stroke-dashoffset:0.0;" x="0.0" xlink:href="#C0_6_e7a1517513" y="720.0"/>
    </g>
   </g>
   <g id="text_1">
    <g id="patch_2">
     <path d="
M1033.57 302.825
L1156.86 248.568
Q1160.7 246.877 1159.01 243.032
L1153.55 230.631
Q1151.86 226.787 1148.02 228.478
L1024.73 282.735
Q1020.88 284.427 1022.58 288.271
L1028.03 300.673
Q1029.73 304.517 1033.57 302.825
z
" style="fill:#ffffff;stroke:#ffffff;"/>
    </g>
    <g clip-path="url(#pf9996adbd3)">
     <!-- Affinity Capture-MS -->
     <defs>
      <path id="BitstreamVeraSans-Roman-20"/>
      <path d="
M8.5 21.5781
L8.5 54.6875
L17.4844 54.6875
L17.4844 21.9219
Q17.4844 14.1562 20.5 10.2656
Q23.5312 6.39062 29.5938 6.39062
Q36.8594 6.39062 41.0781 11.0312
Q45.3125 15.6719 45.3125 23.6875
L45.3125 54.6875
L54.2969 54.6875
L54.2969 0
L45.3125 0
L45.3125 8.40625
Q42.0469 3.42188 37.7188 1
Q33.4062 -1.42188 27.6875 -1.42188
Q18.2656 -1.42188 13.375 4.4375
Q8.5 10.2969 8.5 21.5781" id="BitstreamVeraSans-Roman-75"/>
      <path d="
M53.5156 70.5156
L53.5156 60.8906
Q47.9062 63.5781 42.9219 64.8906
Q37.9375 66.2188 33.2969 66.2188
Q25.25 66.2188 20.875 63.0938
Q16.5 59.9688 16.5 54.2031
Q16.5 49.3594 19.4062 46.8906
Q22.3125 44.4375 30.4219 42.9219
L36.375 41.7031
Q47.4062 39.5938 52.6562 34.2969
Q57.9062 29 57.9062 20.125
Q57.9062 9.51562 50.7969 4.04688
Q43.7031 -1.42188 29.9844 -1.42188
Q24.8125 -1.42188 18.9688 -0.25
Q13.1406 0.921875 6.89062 3.21875
L6.89062 13.375
Q12.8906 10.0156 18.6562 8.29688
Q24.4219 6.59375 29.9844 6.59375
Q38.4219 6.59375 43.0156 9.90625
Q47.6094 13.2344 47.6094 19.3906
Q47.6094 24.75 44.3125 27.7812
Q41.0156 30.8125 33.5 32.3281
L27.4844 33.5
Q16.4531 35.6875 11.5156 40.375
Q6.59375 45.0625 6.59375 53.4219
Q6.59375 63.0938 13.4062 68.6562
Q20.2188 74.2188 32.1719 74.2188
Q37.3125 74.2188 42.625 73.2812
Q47.9531 72.3594 53.5156 70.5156" id="BitstreamVeraSans-Roman-53"/>
      <path d="
M54.8906 33.0156
L54.8906 0
L45.9062 0
L45.9062 32.7188
Q45.9062 40.4844 42.875 44.3281
Q39.8438 48.1875 33.7969 48.1875
Q26.5156 48.1875 22.3125 43.5469
Q18.1094 38.9219 18.1094 30.9062
L18.1094 0
L9.07812 0
L9.07812 54.6875
L18.1094 54.6875
L18.1094 46.1875
Q21.3438 51.125 25.7031 53.5625
Q30.0781 56 35.7969 56
Q45.2188 56 50.0469 50.1719
Q54.8906 44.3438 54.8906 33.0156" id="BitstreamVeraSans-Roman-6e"/>
      <path d="
M41.1094 46.2969
Q39.5938 47.1719 37.8125 47.5781
Q36.0312 48 33.8906 48
Q26.2656 48 22.1875 43.0469
Q18.1094 38.0938 18.1094 28.8125
L18.1094 0
L9.07812 0
L9.07812 54.6875
L18.1094 54.6875
L18.1094 46.1875
Q20.9531 51.1719 25.4844 53.5781
Q30.0312 56 36.5312 56
Q37.4531 56 38.5781 55.875
Q39.7031 55.7656 41.0625 55.5156
z
" id="BitstreamVeraSans-Roman-72"/>
      <path d="
M9.8125 72.9062
L24.5156 72.9062
L43.1094 23.2969
L61.8125 72.9062
L76.5156 72.9062
L76.5156 0
L66.8906 0
L66.8906 64.0156
L48.0938 14.0156
L38.1875 14.0156
L19.3906 64.0156
L19.3906 0
L9.8125 0
z
" id="BitstreamVeraSans-Roman-4d"/>
      <path d="
M9.42188 54.6875
L18.4062 54.6875
L18.4062 0
L9.42188 0
z

M9.42188 75.9844
L18.4062 75.9844
L18.4062 64.5938
L9.42188 64.5938
z
" id="BitstreamVeraSans-Roman-69"/>
      <path d="
M4.89062 31.3906
L31.2031 31.3906
L31.2031 23.3906
L4.89062 23.3906
z
" id="BitstreamVeraSans-Roman-2d"/>
      <path d="
M34.1875 63.1875
L20.7969 26.9062
L47.6094 26.9062
z

M28.6094 72.9062
L39.7969 72.9062
L67.5781 0
L57.3281 0
L50.6875 18.7031
L17.8281 18.7031
L11.1875 0
L0.78125 0
z
" id="BitstreamVeraSans-Roman-41"/>
      <path d="
M32.1719 -5.07812
Q28.375 -14.8438 24.75 -17.8125
Q21.1406 -20.7969 15.0938 -20.7969
L7.90625 -20.7969
L7.90625 -13.2812
L13.1875 -13.2812
Q16.8906 -13.2812 18.9375 -11.5156
Q21 -9.76562 23.4844 -3.21875
L25.0938 0.875
L2.98438 54.6875
L12.5 54.6875
L29.5938 11.9219
L46.6875 54.6875
L56.2031 54.6875
z
" id="BitstreamVeraSans-Roman-79"/>
      <path d="
M56.2031 29.5938
L56.2031 25.2031
L14.8906 25.2031
Q15.4844 15.9219 20.4844 11.0625
Q25.4844 6.20312 34.4219 6.20312
Q39.5938 6.20312 44.4531 7.46875
Q49.3125 8.73438 54.1094 11.2812
L54.1094 2.78125
Q49.2656 0.734375 44.1875 -0.34375
Q39.1094 -1.42188 33.8906 -1.42188
Q20.7969 -1.42188 13.1562 6.1875
Q5.51562 13.8125 5.51562 26.8125
Q5.51562 40.2344 12.7656 48.1094
Q20.0156 56 32.3281 56
Q43.3594 56 49.7812 48.8906
Q56.2031 41.7969 56.2031 29.5938
M47.2188 32.2344
Q47.125 39.5938 43.0938 43.9844
Q39.0625 48.3906 32.4219 48.3906
Q24.9062 48.3906 20.3906 44.1406
Q15.875 39.8906 15.1875 32.1719
z
" id="BitstreamVeraSans-Roman-65"/>
      <path d="
M64.4062 67.2812
L64.4062 56.8906
Q59.4219 61.5312 53.7812 63.8125
Q48.1406 66.1094 41.7969 66.1094
Q29.2969 66.1094 22.6562 58.4688
Q16.0156 50.8281 16.0156 36.375
Q16.0156 21.9688 22.6562 14.3281
Q29.2969 6.6875 41.7969 6.6875
Q48.1406 6.6875 53.7812 8.98438
Q59.4219 11.2812 64.4062 15.9219
L64.4062 5.60938
Q59.2344 2.09375 53.4375 0.328125
Q47.6562 -1.42188 41.2188 -1.42188
Q24.6562 -1.42188 15.125 8.70312
Q5.60938 18.8438 5.60938 36.375
Q5.60938 53.9531 15.125 64.0781
Q24.6562 74.2188 41.2188 74.2188
Q47.75 74.2188 53.5312 72.4844
Q59.3281 70.75 64.4062 67.2812" id="BitstreamVeraSans-Roman-43"/>
      <path d="
M18.3125 70.2188
L18.3125 54.6875
L36.8125 54.6875
L36.8125 47.7031
L18.3125 47.7031
L18.3125 18.0156
Q18.3125 11.3281 20.1406 9.42188
Q21.9688 7.51562 27.5938 7.51562
L36.8125 7.51562
L36.8125 0
L27.5938 0
Q17.1875 0 13.2344 3.875
Q9.28125 7.76562 9.28125 18.0156
L9.28125 47.7031
L2.6875 47.7031
L2.6875 54.6875
L9.28125 54.6875
L9.28125 70.2188
z
" id="BitstreamVeraSans-Roman-74"/>
      <path d="
M37.1094 75.9844
L37.1094 68.5
L28.5156 68.5
Q23.6875 68.5 21.7969 66.5469
Q19.9219 64.5938 19.9219 59.5156
L19.9219 54.6875
L34.7188 54.6875
L34.7188 47.7031
L19.9219 47.7031
L19.9219 0
L10.8906 0
L10.8906 47.7031
L2.29688 47.7031
L2.29688 54.6875
L10.8906 54.6875
L10.8906 58.5
Q10.8906 67.625 15.1406 71.7969
Q19.3906 75.9844 28.6094 75.9844
z
" id="BitstreamVeraSans-Roman-66"/>
      <path d="
M34.2812 27.4844
Q23.3906 27.4844 19.1875 25
Q14.9844 22.5156 14.9844 16.5
Q14.9844 11.7188 18.1406 8.90625
Q21.2969 6.10938 26.7031 6.10938
Q34.1875 6.10938 38.7031 11.4062
Q43.2188 16.7031 43.2188 25.4844
L43.2188 27.4844
z

M52.2031 31.2031
L52.2031 0
L43.2188 0
L43.2188 8.29688
Q40.1406 3.32812 35.5469 0.953125
Q30.9531 -1.42188 24.3125 -1.42188
Q15.9219 -1.42188 10.9531 3.29688
Q6 8.01562 6 15.9219
Q6 25.1406 12.1719 29.8281
Q18.3594 34.5156 30.6094 34.5156
L43.2188 34.5156
L43.2188 35.4062
Q43.2188 41.6094 39.1406 45
Q35.0625 48.3906 27.6875 48.3906
Q23 48.3906 18.5469 47.2656
Q14.1094 46.1406 10.0156 43.8906
L10.0156 52.2031
Q14.9375 54.1094 19.5781 55.0469
Q24.2188 56 28.6094 56
Q40.4844 56 46.3438 49.8438
Q52.2031 43.7031 52.2031 31.2031" id="BitstreamVeraSans-Roman-61"/>
      <path d="
M18.1094 8.20312
L18.1094 -20.7969
L9.07812 -20.7969
L9.07812 54.6875
L18.1094 54.6875
L18.1094 46.3906
Q20.9531 51.2656 25.2656 53.625
Q29.5938 56 35.5938 56
Q45.5625 56 51.7812 48.0938
Q58.0156 40.1875 58.0156 27.2969
Q58.0156 14.4062 51.7812 6.48438
Q45.5625 -1.42188 35.5938 -1.42188
Q29.5938 -1.42188 25.2656 0.953125
Q20.9531 3.32812 18.1094 8.20312
M48.6875 27.2969
Q48.6875 37.2031 44.6094 42.8438
Q40.5312 48.4844 33.4062 48.4844
Q26.2656 48.4844 22.1875 42.8438
Q18.1094 37.2031 18.1094 27.2969
Q18.1094 17.3906 22.1875 11.75
Q26.2656 6.10938 33.4062 6.10938
Q40.5312 6.10938 44.6094 11.75
Q48.6875 17.3906 48.6875 27.2969" id="BitstreamVeraSans-Roman-70"/>
     </defs>
     <g style="fill:#bfbf00;" transform="translate(1030.70548017 296.315963514)rotate(-23.7536133283)scale(0.14 -0.14)">
      <use xlink:href="#BitstreamVeraSans-Roman-41"/>
      <use x="64.783203125" xlink:href="#BitstreamVeraSans-Roman-66"/>
      <use x="99.98828125" xlink:href="#BitstreamVeraSans-Roman-66"/>
      <use x="135.193359375" xlink:href="#BitstreamVeraSans-Roman-69"/>
      <use x="162.9765625" xlink:href="#BitstreamVeraSans-Roman-6e"/>
      <use x="226.35546875" xlink:href="#BitstreamVeraSans-Roman-69"/>
      <use x="254.138671875" xlink:href="#BitstreamVeraSans-Roman-74"/>
      <use x="293.34765625" xlink:href="#BitstreamVeraSans-Roman-79"/>
      <use x="352.52734375" xlink:href="#BitstreamVeraSans-Roman-20"/>
      <use x="384.314453125" xlink:href="#BitstreamVeraSans-Roman-43"/>
      <use x="454.138671875" xlink:href="#BitstreamVeraSans-Roman-61"/>
      <use x="515.41796875" xlink:href="#BitstreamVeraSans-Roman-70"/>
      <use x="578.89453125" xlink:href="#BitstreamVeraSans-Roman-74"/>
      <use x="618.103515625" xlink:href="#BitstreamVeraSans-Roman-75"/>
      <use x="681.482421875" xlink:href="#BitstreamVeraSans-Roman-72"/>
      <use x="720.345703125" xlink:href="#BitstreamVeraSans-Roman-65"/>
      <use x="781.869140625" xlink:href="#BitstreamVeraSans-Roman-2d"/>
      <use x="817.953125" xlink:href="#BitstreamVeraSans-Roman-4d"/>
      <use x="904.232421875" xlink:href="#BitstreamVeraSans-Roman-53"/>
     </g>
    </g>
   </g>
   <g id="text_2">
    <g id="patch_3">
     <path d="
M993.987 447.654
L1110.83 514.674
Q1114.47 516.764 1116.56 513.121
L1123.3 501.367
Q1125.39 497.724 1121.75 495.634
L1004.91 428.614
Q1001.27 426.525 999.175 430.168
L992.434 441.921
Q990.344 445.564 993.987 447.654
z
" style="fill:#ffffff;stroke:#ffffff;"/>
    </g>
    <g clip-path="url(#pf9996adbd3)">
     <!-- Affinity Capture-MS -->
     <g style="fill:#bfbf00;" transform="translate(997.525557443 441.48501618)rotate(-330.161247845)scale(0.14 -0.14)">
      <use xlink:href="#BitstreamVeraSans-Roman-41"/>
      <use x="64.783203125" xlink:href="#BitstreamVeraSans-Roman-66"/>
      <use x="99.98828125" xlink:href="#BitstreamVeraSans-Roman-66"/>
      <use x="135.193359375" xlink:href="#BitstreamVeraSans-Roman-69"/>
      <use x="162.9765625" xlink:href="#BitstreamVeraSans-Roman-6e"/>
      <use x="226.35546875" xlink:href="#BitstreamVeraSans-Roman-69"/>
      <use x="254.138671875" xlink:href="#BitstreamVeraSans-Roman-74"/>
      <use x="293.34765625" xlink:href="#BitstreamVeraSans-Roman-79"/>
      <use x="352.52734375" xlink:href="#BitstreamVeraSans-Roman-20"/>
      <use x="384.314453125" xlink:href="#BitstreamVeraSans-Roman-43"/>
      <use x="454.138671875" xlink:href="#BitstreamVeraSans-Roman-61"/>
      <use x="515.41796875" xlink:href="#BitstreamVeraSans-Roman-70"/>
      <use x="578.89453125" xlink:href="#BitstreamVeraSans-Roman-74"/>
      <use x="618.103515625" xlink:href="#BitstreamVeraSans-Roman-75"/>
      <use x="681.482421875" xlink:href="#BitstreamVeraSans-Roman-72"/>
      <use x="720.345703125" xlink:href="#BitstreamVeraSans-Roman-65"/>
      <use x="781.869140625" xlink:href="#BitstreamVeraSans-Roman-2d"/>
      <use x="817.953125" xlink:href="#BitstreamVeraSans-Roman-4d"/>
      <use x="904.232421875" xlink:href="#BitstreamVeraSans-Roman-53"/>
     </g>
    </g>
   </g>
   <g id="text_3">
    <g id="patch_4">
     <path d="
M480.195 437.605
L649.422 410.091
Q653.568 409.417 652.894 405.272
L650.719 391.898
Q650.045 387.752 645.9 388.426
L476.672 415.94
Q472.527 416.614 473.201 420.759
L475.375 434.133
Q476.049 438.279 480.195 437.605
z
" style="fill:#ffffff;stroke:#ffffff;"/>
    </g>
    <g clip-path="url(#pf9996adbd3)">
     <!-- Synthetic Growth Defect -->
     <defs>
      <path d="
M30.6094 48.3906
Q23.3906 48.3906 19.1875 42.75
Q14.9844 37.1094 14.9844 27.2969
Q14.9844 17.4844 19.1562 11.8438
Q23.3438 6.20312 30.6094 6.20312
Q37.7969 6.20312 41.9844 11.8594
Q46.1875 17.5312 46.1875 27.2969
Q46.1875 37.0156 41.9844 42.7031
Q37.7969 48.3906 30.6094 48.3906
M30.6094 56
Q42.3281 56 49.0156 48.375
Q55.7188 40.7656 55.7188 27.2969
Q55.7188 13.875 49.0156 6.21875
Q42.3281 -1.42188 30.6094 -1.42188
Q18.8438 -1.42188 12.1719 6.21875
Q5.51562 13.875 5.51562 27.2969
Q5.51562 40.7656 12.1719 48.375
Q18.8438 56 30.6094 56" id="BitstreamVeraSans-Roman-6f"/>
      <path d="
M59.5156 10.4062
L59.5156 29.9844
L43.4062 29.9844
L43.4062 38.0938
L69.2812 38.0938
L69.2812 6.78125
Q63.5781 2.73438 56.6875 0.65625
Q49.8125 -1.42188 42 -1.42188
Q24.9062 -1.42188 15.25 8.5625
Q5.60938 18.5625 5.60938 36.375
Q5.60938 54.25 15.25 64.2344
Q24.9062 74.2188 42 74.2188
Q49.125 74.2188 55.5469 72.4531
Q61.9688 70.7031 67.3906 67.2812
L67.3906 56.7812
Q61.9219 61.4219 55.7656 63.7656
Q49.6094 66.1094 42.8281 66.1094
Q29.4375 66.1094 22.7188 58.6406
Q16.0156 51.1719 16.0156 36.375
Q16.0156 21.625 22.7188 14.1562
Q29.4375 6.6875 42.8281 6.6875
Q48.0469 6.6875 52.1406 7.59375
Q56.25 8.5 59.5156 10.4062" id="BitstreamVeraSans-Roman-47"/>
      <path d="
M19.6719 64.7969
L19.6719 8.10938
L31.5938 8.10938
Q46.6875 8.10938 53.6875 14.9375
Q60.6875 21.7812 60.6875 36.5312
Q60.6875 51.1719 53.6875 57.9844
Q46.6875 64.7969 31.5938 64.7969
z

M9.8125 72.9062
L30.0781 72.9062
Q51.2656 72.9062 61.1719 64.0938
Q71.0938 55.2812 71.0938 36.5312
Q71.0938 17.6719 61.125 8.82812
Q51.1719 0 30.0781 0
L9.8125 0
z
" id="BitstreamVeraSans-Roman-44"/>
      <path d="
M54.8906 33.0156
L54.8906 0
L45.9062 0
L45.9062 32.7188
Q45.9062 40.4844 42.875 44.3281
Q39.8438 48.1875 33.7969 48.1875
Q26.5156 48.1875 22.3125 43.5469
Q18.1094 38.9219 18.1094 30.9062
L18.1094 0
L9.07812 0
L9.07812 75.9844
L18.1094 75.9844
L18.1094 46.1875
Q21.3438 51.125 25.7031 53.5625
Q30.0781 56 35.7969 56
Q45.2188 56 50.0469 50.1719
Q54.8906 44.3438 54.8906 33.0156" id="BitstreamVeraSans-Roman-68"/>
      <path d="
M4.20312 54.6875
L13.1875 54.6875
L24.4219 12.0156
L35.5938 54.6875
L46.1875 54.6875
L57.4219 12.0156
L68.6094 54.6875
L77.5938 54.6875
L63.2812 0
L52.6875 0
L40.9219 44.8281
L29.1094 0
L18.5 0
z
" id="BitstreamVeraSans-Roman-77"/>
      <path d="
M48.7812 52.5938
L48.7812 44.1875
Q44.9688 46.2969 41.1406 47.3438
Q37.3125 48.3906 33.4062 48.3906
Q24.6562 48.3906 19.8125 42.8438
Q14.9844 37.3125 14.9844 27.2969
Q14.9844 17.2812 19.8125 11.7344
Q24.6562 6.20312 33.4062 6.20312
Q37.3125 6.20312 41.1406 7.25
Q44.9688 8.29688 48.7812 10.4062
L48.7812 2.09375
Q45.0156 0.34375 40.9844 -0.53125
Q36.9688 -1.42188 32.4219 -1.42188
Q20.0625 -1.42188 12.7812 6.34375
Q5.51562 14.1094 5.51562 27.2969
Q5.51562 40.6719 12.8594 48.3281
Q20.2188 56 33.0156 56
Q37.1562 56 41.1094 55.1406
Q45.0625 54.2969 48.7812 52.5938" id="BitstreamVeraSans-Roman-63"/>
     </defs>
     <g style="fill:#bfbf00;" transform="translate(479.053286008 430.585287042)rotate(-9.2344769416)scale(0.14 -0.14)">
      <use xlink:href="#BitstreamVeraSans-Roman-53"/>
      <use x="63.4765625" xlink:href="#BitstreamVeraSans-Roman-79"/>
      <use x="122.65625" xlink:href="#BitstreamVeraSans-Roman-6e"/>
      <use x="186.03515625" xlink:href="#BitstreamVeraSans-Roman-74"/>
      <use x="225.244140625" xlink:href="#BitstreamVeraSans-Roman-68"/>
      <use x="288.623046875" xlink:href="#BitstreamVeraSans-Roman-65"/>
      <use x="350.146484375" xlink:href="#BitstreamVeraSans-Roman-74"/>
      <use x="389.35546875" xlink:href="#BitstreamVeraSans-Roman-69"/>
      <use x="417.138671875" xlink:href="#BitstreamVeraSans-Roman-63"/>
      <use x="472.119140625" xlink:href="#BitstreamVeraSans-Roman-20"/>
      <use x="503.90625" xlink:href="#BitstreamVeraSans-Roman-47"/>
      <use x="581.396484375" xlink:href="#BitstreamVeraSans-Roman-72"/>
      <use x="620.259765625" xlink:href="#BitstreamVeraSans-Roman-6f"/>
      <use x="681.44140625" xlink:href="#BitstreamVeraSans-Roman-77"/>
      <use x="763.228515625" xlink:href="#BitstreamVeraSans-Roman-74"/>
      <use x="802.4375" xlink:href="#BitstreamVeraSans-Roman-68"/>
      <use x="865.81640625" xlink:href="#BitstreamVeraSans-Roman-20"/>
      <use x="897.603515625" xlink:href="#BitstreamVeraSans-Roman-44"/>
      <use x="974.60546875" xlink:href="#BitstreamVeraSans-Roman-65"/>
      <use x="1036.12890625" xlink:href="#BitstreamVeraSans-Roman-66"/>
      <use x="1071.33398438" xlink:href="#BitstreamVeraSans-Roman-65"/>
      <use x="1132.85742188" xlink:href="#BitstreamVeraSans-Roman-63"/>
      <use x="1187.83789062" xlink:href="#BitstreamVeraSans-Roman-74"/>
     </g>
    </g>
   </g>
   <g id="text_4">
    <g id="patch_5">
     <path d="
M780.233 174.855
L831.11 299.574
Q832.697 303.463 836.586 301.876
L849.131 296.759
Q853.02 295.172 851.434 291.283
L800.556 166.564
Q798.97 162.675 795.081 164.262
L782.535 169.379
Q778.646 170.966 780.233 174.855
z
" style="fill:#ffffff;stroke:#ffffff;"/>
    </g>
    <g clip-path="url(#pf9996adbd3)">
     <!-- Affinity Capture-MS -->
     <g style="fill:#bfbf00;" transform="translate(786.81749488 172.168584134)rotate(-292.192375562)scale(0.14 -0.14)">
      <use xlink:href="#BitstreamVeraSans-Roman-41"/>
      <use x="64.783203125" xlink:href="#BitstreamVeraSans-Roman-66"/>
      <use x="99.98828125" xlink:href="#BitstreamVeraSans-Roman-66"/>
      <use x="135.193359375" xlink:href="#BitstreamVeraSans-Roman-69"/>
      <use x="162.9765625" xlink:href="#BitstreamVeraSans-Roman-6e"/>
      <use x="226.35546875" xlink:href="#BitstreamVeraSans-Roman-69"/>
      <use x="254.138671875" xlink:href="#BitstreamVeraSans-Roman-74"/>
      <use x="293.34765625" xlink:href="#BitstreamVeraSans-Roman-79"/>
      <use x="352.52734375" xlink:href="#BitstreamVeraSans-Roman-20"/>
      <use x="384.314453125" xlink:href="#BitstreamVeraSans-Roman-43"/>
      <use x="454.138671875" xlink:href="#BitstreamVeraSans-Roman-61"/>
      <use x="515.41796875" xlink:href="#BitstreamVeraSans-Roman-70"/>
      <use x="578.89453125" xlink:href="#BitstreamVeraSans-Roman-74"/>
      <use x="618.103515625" xlink:href="#BitstreamVeraSans-Roman-75"/>
      <use x="681.482421875" xlink:href="#BitstreamVeraSans-Roman-72"/>
      <use x="720.345703125" xlink:href="#BitstreamVeraSans-Roman-65"/>
      <use x="781.869140625" xlink:href="#BitstreamVeraSans-Roman-2d"/>
      <use x="817.953125" xlink:href="#BitstreamVeraSans-Roman-4d"/>
      <use x="904.232421875" xlink:href="#BitstreamVeraSans-Roman-53"/>
     </g>
    </g>
   </g>
   <g id="text_5">
    <g id="patch_6">
     <path d="
M513.334 294.824
L644.77 324.282
Q648.869 325.201 649.787 321.103
L652.75 307.881
Q653.669 303.783 649.571 302.864
L518.134 273.406
Q514.036 272.487 513.117 276.585
L510.154 289.807
Q509.235 293.905 513.334 294.824
z
" style="fill:#ffffff;stroke:#ffffff;"/>
    </g>
    <g clip-path="url(#pf9996adbd3)">
     <!-- Affinity Capture-MS -->
     <g style="fill:#bfbf00;" transform="translate(514.888877829 287.884131117)rotate(-347.367119465)scale(0.14 -0.14)">
      <use xlink:href="#BitstreamVeraSans-Roman-41"/>
      <use x="64.783203125" xlink:href="#BitstreamVeraSans-Roman-66"/>
      <use x="99.98828125" xlink:href="#BitstreamVeraSans-Roman-66"/>
      <use x="135.193359375" xlink:href="#BitstreamVeraSans-Roman-69"/>
      <use x="162.9765625" xlink:href="#BitstreamVeraSans-Roman-6e"/>
      <use x="226.35546875" xlink:href="#BitstreamVeraSans-Roman-69"/>
      <use x="254.138671875" xlink:href="#BitstreamVeraSans-Roman-74"/>
      <use x="293.34765625" xlink:href="#BitstreamVeraSans-Roman-79"/>
      <use x="352.52734375" xlink:href="#BitstreamVeraSans-Roman-20"/>
      <use x="384.314453125" xlink:href="#BitstreamVeraSans-Roman-43"/>
      <use x="454.138671875" xlink:href="#BitstreamVeraSans-Roman-61"/>
      <use x="515.41796875" xlink:href="#BitstreamVeraSans-Roman-70"/>
      <use x="578.89453125" xlink:href="#BitstreamVeraSans-Roman-74"/>
      <use x="618.103515625" xlink:href="#BitstreamVeraSans-Roman-75"/>
      <use x="681.482421875" xlink:href="#BitstreamVeraSans-Roman-72"/>
      <use x="720.345703125" xlink:href="#BitstreamVeraSans-Roman-65"/>
      <use x="781.869140625" xlink:href="#BitstreamVeraSans-Roman-2d"/>
      <use x="817.953125" xlink:href="#BitstreamVeraSans-Roman-4d"/>
      <use x="904.232421875" xlink:href="#BitstreamVeraSans-Roman-53"/>
     </g>
    </g>
   </g>
   <g id="text_6">
    <g id="patch_7">
     <path d="
M744.887 549.302
L822.712 444.182
Q825.211 440.807 821.835 438.308
L810.945 430.246
Q807.57 427.746 805.071 431.122
L727.246 536.241
Q724.747 539.617 728.122 542.116
L739.012 550.178
Q742.388 552.677 744.887 549.302
z
" style="fill:#ffffff;stroke:#ffffff;"/>
    </g>
    <g clip-path="url(#pf9996adbd3)">
     <!-- Synthetic Lethality -->
     <defs>
      <path d="
M9.8125 72.9062
L19.6719 72.9062
L19.6719 8.29688
L55.1719 8.29688
L55.1719 0
L9.8125 0
z
" id="BitstreamVeraSans-Roman-4c"/>
      <path d="
M9.42188 75.9844
L18.4062 75.9844
L18.4062 0
L9.42188 0
z
" id="BitstreamVeraSans-Roman-6c"/>
     </defs>
     <g style="fill:#bfbf00;" transform="translate(739.171265363 545.07021875)rotate(-53.4857736373)scale(0.14 -0.14)">
      <use xlink:href="#BitstreamVeraSans-Roman-53"/>
      <use x="63.4765625" xlink:href="#BitstreamVeraSans-Roman-79"/>
      <use x="122.65625" xlink:href="#BitstreamVeraSans-Roman-6e"/>
      <use x="186.03515625" xlink:href="#BitstreamVeraSans-Roman-74"/>
      <use x="225.244140625" xlink:href="#BitstreamVeraSans-Roman-68"/>
      <use x="288.623046875" xlink:href="#BitstreamVeraSans-Roman-65"/>
      <use x="350.146484375" xlink:href="#BitstreamVeraSans-Roman-74"/>
      <use x="389.35546875" xlink:href="#BitstreamVeraSans-Roman-69"/>
      <use x="417.138671875" xlink:href="#BitstreamVeraSans-Roman-63"/>
      <use x="472.119140625" xlink:href="#BitstreamVeraSans-Roman-20"/>
      <use x="503.90625" xlink:href="#BitstreamVeraSans-Roman-4c"/>
      <use x="557.869140625" xlink:href="#BitstreamVeraSans-Roman-65"/>
      <use x="619.392578125" xlink:href="#BitstreamVeraSans-Roman-74"/>
      <use x="658.6015625" xlink:href="#BitstreamVeraSans-Roman-68"/>
      <use x="721.98046875" xlink:href="#BitstreamVeraSans-Roman-61"/>
      <use x="783.259765625" xlink:href="#BitstreamVeraSans-Roman-6c"/>
      <use x="811.04296875" xlink:href="#BitstreamVeraSans-Roman-69"/>
      <use x="838.826171875" xlink:href="#BitstreamVeraSans-Roman-74"/>
      <use x="878.03515625" xlink:href="#BitstreamVeraSans-Roman-79"/>
     </g>
    </g>
   </g>
   <g id="text_7">
    <g id="patch_8">
     <path d="
M1111.83 380.593
L1283.22 385.063
Q1287.42 385.172 1287.53 380.974
L1287.88 367.429
Q1287.99 363.231 1283.8 363.121
L1112.4 358.651
Q1108.21 358.542 1108.1 362.74
L1107.74 376.285
Q1107.63 380.484 1111.83 380.593
z
" style="fill:#ffffff;stroke:#ffffff;"/>
    </g>
    <g clip-path="url(#pf9996adbd3)">
     <!-- Synthetic Growth Defect -->
     <g style="fill:#bfbf00;" transform="translate(1112.01741397 373.484154259)rotate(-358.50614767)scale(0.14 -0.14)">
      <use xlink:href="#BitstreamVeraSans-Roman-53"/>
      <use x="63.4765625" xlink:href="#BitstreamVeraSans-Roman-79"/>
      <use x="122.65625" xlink:href="#BitstreamVeraSans-Roman-6e"/>
      <use x="186.03515625" xlink:href="#BitstreamVeraSans-Roman-74"/>
      <use x="225.244140625" xlink:href="#BitstreamVeraSans-Roman-68"/>
      <use x="288.623046875" xlink:href="#BitstreamVeraSans-Roman-65"/>
      <use x="350.146484375" xlink:href="#BitstreamVeraSans-Roman-74"/>
      <use x="389.35546875" xlink:href="#BitstreamVeraSans-Roman-69"/>
      <use x="417.138671875" xlink:href="#BitstreamVeraSans-Roman-63"/>
      <use x="472.119140625" xlink:href="#BitstreamVeraSans-Roman-20"/>
      <use x="503.90625" xlink:href="#BitstreamVeraSans-Roman-47"/>
      <use x="581.396484375" xlink:href="#BitstreamVeraSans-Roman-72"/>
      <use x="620.259765625" xlink:href="#BitstreamVeraSans-Roman-6f"/>
      <use x="681.44140625" xlink:href="#BitstreamVeraSans-Roman-77"/>
      <use x="763.228515625" xlink:href="#BitstreamVeraSans-Roman-74"/>
      <use x="802.4375" xlink:href="#BitstreamVeraSans-Roman-68"/>
      <use x="865.81640625" xlink:href="#BitstreamVeraSans-Roman-20"/>
      <use x="897.603515625" xlink:href="#BitstreamVeraSans-Roman-44"/>
      <use x="974.60546875" xlink:href="#BitstreamVeraSans-Roman-65"/>
      <use x="1036.12890625" xlink:href="#BitstreamVeraSans-Roman-66"/>
      <use x="1071.33398438" xlink:href="#BitstreamVeraSans-Roman-65"/>
      <use x="1132.85742188" xlink:href="#BitstreamVeraSans-Roman-63"/>
      <use x="1187.83789062" xlink:href="#BitstreamVeraSans-Roman-74"/>
     </g>
    </g>
   </g>
   <g id="PathCollection_1">
    <defs>
     <path d="
M0 25
C6.63008 25 12.9895 22.3658 17.6777 17.6777
C22.3658 12.9895 25 6.63008 25 0
C25 -6.63008 22.3658 -12.9895 17.6777 -17.6777
C12.9895 -22.3658 6.63008 -25 0 -25
C-6.63008 -25 -12.9895 -22.3658 -17.6777 -17.6777
C-22.3658 -12.9895 -25 -6.63008 -25 0
C-25 6.63008 -22.3658 12.9895 -17.6777 17.6777
C-12.9895 22.3658 -6.63008 25 0 25
z
" id="C1_0_420caaf6a1"/>
    </defs>
    <g clip-path="url(#pf9996adbd3)">
     <use style="fill:#ff0000;stroke:#000000;" x="1312.63401658" xlink:href="#C1_0_420caaf6a1" y="168.022541036"/>
    </g>
    <g clip-path="url(#pf9996adbd3)">
     <use style="fill:#ff0000;stroke:#000000;" x="762.714976329" xlink:href="#C1_0_420caaf6a1" y="102.857142857"/>
    </g>
    <g clip-path="url(#pf9996adbd3)">
     <use style="fill:#ff0000;stroke:#000000;" x="257.142857143" xlink:href="#C1_0_420caaf6a1" y="462.750132608"/>
    </g>
    <g clip-path="url(#pf9996adbd3)">
     <use style="fill:#ff0000;stroke:#000000;" x="1526.67614271" xlink:href="#C1_0_420caaf6a1" y="380.43341474"/>
    </g>
    <g clip-path="url(#pf9996adbd3)">
     <use style="fill:#ff0000;stroke:#000000;" x="681.005998685" xlink:href="#C1_0_420caaf6a1" y="617.142857143"/>
    </g>
    <g clip-path="url(#pf9996adbd3)">
     <use style="fill:#00bfbf;stroke:#000000;" x="868.951522702" xlink:href="#C1_0_420caaf6a1" y="363.280909549"/>
    </g>
    <g clip-path="url(#pf9996adbd3)">
     <use style="fill:#ff0000;stroke:#000000;" x="1246.78440562" xlink:href="#C1_0_420caaf6a1" y="580.00733938"/>
    </g>
    <g clip-path="url(#pf9996adbd3)">
     <use style="fill:#ff0000;stroke:#000000;" x="293.952653073" xlink:href="#C1_0_420caaf6a1" y="234.406926405"/>
    </g>
   </g>
   <g id="text_8">
    <g clip-path="url(#pf9996adbd3)">
     <!-- NAF1 -->
     <defs>
      <path d="
M9.8125 72.9062
L51.7031 72.9062
L51.7031 64.5938
L19.6719 64.5938
L19.6719 43.1094
L48.5781 43.1094
L48.5781 34.8125
L19.6719 34.8125
L19.6719 0
L9.8125 0
z
" id="BitstreamVeraSans-Roman-46"/>
      <path d="
M9.8125 72.9062
L23.0938 72.9062
L55.4219 11.9219
L55.4219 72.9062
L64.9844 72.9062
L64.9844 0
L51.7031 0
L19.3906 60.9844
L19.3906 0
L9.8125 0
z
" id="BitstreamVeraSans-Roman-4e"/>
      <path d="
M12.4062 8.29688
L28.5156 8.29688
L28.5156 63.9219
L10.9844 60.4062
L10.9844 69.3906
L28.4219 72.9062
L38.2812 72.9062
L38.2812 8.29688
L54.3906 8.29688
L54.3906 0
L12.4062 0
z
" id="BitstreamVeraSans-Roman-31"/>
     </defs>
     <g transform="translate(1297.91526658 171.333791036)scale(0.12 -0.12)">
      <use xlink:href="#BitstreamVeraSans-Roman-4e"/>
      <use x="74.8046875" xlink:href="#BitstreamVeraSans-Roman-41"/>
      <use x="143.212890625" xlink:href="#BitstreamVeraSans-Roman-46"/>
      <use x="200.732421875" xlink:href="#BitstreamVeraSans-Roman-31"/>
     </g>
    </g>
   </g>
   <g id="text_9">
    <g clip-path="url(#pf9996adbd3)">
     <!-- RLI1 -->
     <defs>
      <path d="
M44.3906 34.1875
Q47.5625 33.1094 50.5625 29.5938
Q53.5625 26.0781 56.5938 19.9219
L66.6094 0
L56 0
L46.6875 18.7031
Q43.0625 26.0312 39.6719 28.4219
Q36.2812 30.8125 30.4219 30.8125
L19.6719 30.8125
L19.6719 0
L9.8125 0
L9.8125 72.9062
L32.0781 72.9062
Q44.5781 72.9062 50.7344 67.6719
Q56.8906 62.4531 56.8906 51.9062
Q56.8906 45.0156 53.6875 40.4688
Q50.4844 35.9375 44.3906 34.1875
M19.6719 64.7969
L19.6719 38.9219
L32.0781 38.9219
Q39.2031 38.9219 42.8438 42.2188
Q46.4844 45.5156 46.4844 51.9062
Q46.4844 58.2969 42.8438 61.5469
Q39.2031 64.7969 32.0781 64.7969
z
" id="BitstreamVeraSans-Roman-52"/>
      <path d="
M9.8125 72.9062
L19.6719 72.9062
L19.6719 0
L9.8125 0
z
" id="BitstreamVeraSans-Roman-49"/>
     </defs>
     <g transform="translate(750.758101329 106.168392857)scale(0.12 -0.12)">
      <use xlink:href="#BitstreamVeraSans-Roman-52"/>
      <use x="69.482421875" xlink:href="#BitstreamVeraSans-Roman-4c"/>
      <use x="125.1953125" xlink:href="#BitstreamVeraSans-Roman-49"/>
      <use x="154.6875" xlink:href="#BitstreamVeraSans-Roman-31"/>
     </g>
    </g>
   </g>
   <g id="text_10">
    <g clip-path="url(#pf9996adbd3)">
     <!-- LOS1 -->
     <defs>
      <path d="
M39.4062 66.2188
Q28.6562 66.2188 22.3281 58.2031
Q16.0156 50.2031 16.0156 36.375
Q16.0156 22.6094 22.3281 14.5938
Q28.6562 6.59375 39.4062 6.59375
Q50.1406 6.59375 56.4219 14.5938
Q62.7031 22.6094 62.7031 36.375
Q62.7031 50.2031 56.4219 58.2031
Q50.1406 66.2188 39.4062 66.2188
M39.4062 74.2188
Q54.7344 74.2188 63.9062 63.9375
Q73.0938 53.6562 73.0938 36.375
Q73.0938 19.1406 63.9062 8.85938
Q54.7344 -1.42188 39.4062 -1.42188
Q24.0312 -1.42188 14.8125 8.82812
Q5.60938 19.0938 5.60938 36.375
Q5.60938 53.6562 14.8125 63.9375
Q24.0312 74.2188 39.4062 74.2188" id="BitstreamVeraSans-Roman-4f"/>
     </defs>
     <g transform="translate(242.810357143 466.061382608)scale(0.12 -0.12)">
      <use xlink:href="#BitstreamVeraSans-Roman-4c"/>
      <use x="52.087890625" xlink:href="#BitstreamVeraSans-Roman-4f"/>
      <use x="130.798828125" xlink:href="#BitstreamVeraSans-Roman-53"/>
      <use x="194.275390625" xlink:href="#BitstreamVeraSans-Roman-31"/>
     </g>
    </g>
   </g>
   <g id="text_11">
    <g clip-path="url(#pf9996adbd3)">
     <!-- RPL13B -->
     <defs>
      <path d="
M19.6719 64.7969
L19.6719 37.4062
L32.0781 37.4062
Q38.9688 37.4062 42.7188 40.9688
Q46.4844 44.5312 46.4844 51.125
Q46.4844 57.6719 42.7188 61.2344
Q38.9688 64.7969 32.0781 64.7969
z

M9.8125 72.9062
L32.0781 72.9062
Q44.3438 72.9062 50.6094 67.3594
Q56.8906 61.8125 56.8906 51.125
Q56.8906 40.3281 50.6094 34.8125
Q44.3438 29.2969 32.0781 29.2969
L19.6719 29.2969
L19.6719 0
L9.8125 0
z
" id="BitstreamVeraSans-Roman-50"/>
      <path d="
M40.5781 39.3125
Q47.6562 37.7969 51.625 33
Q55.6094 28.2188 55.6094 21.1875
Q55.6094 10.4062 48.1875 4.48438
Q40.7656 -1.42188 27.0938 -1.42188
Q22.5156 -1.42188 17.6562 -0.515625
Q12.7969 0.390625 7.625 2.20312
L7.625 11.7188
Q11.7188 9.32812 16.5938 8.10938
Q21.4844 6.89062 26.8125 6.89062
Q36.0781 6.89062 40.9375 10.5469
Q45.7969 14.2031 45.7969 21.1875
Q45.7969 27.6406 41.2812 31.2656
Q36.7656 34.9062 28.7188 34.9062
L20.2188 34.9062
L20.2188 43.0156
L29.1094 43.0156
Q36.375 43.0156 40.2344 45.9219
Q44.0938 48.8281 44.0938 54.2969
Q44.0938 59.9062 40.1094 62.9062
Q36.1406 65.9219 28.7188 65.9219
Q24.6562 65.9219 20.0156 65.0312
Q15.375 64.1562 9.8125 62.3125
L9.8125 71.0938
Q15.4375 72.6562 20.3438 73.4375
Q25.25 74.2188 29.5938 74.2188
Q40.8281 74.2188 47.3594 69.1094
Q53.9062 64.0156 53.9062 55.3281
Q53.9062 49.2656 50.4375 45.0938
Q46.9688 40.9219 40.5781 39.3125" id="BitstreamVeraSans-Roman-33"/>
      <path d="
M19.6719 34.8125
L19.6719 8.10938
L35.5 8.10938
Q43.4531 8.10938 47.2812 11.4062
Q51.125 14.7031 51.125 21.4844
Q51.125 28.3281 47.2812 31.5625
Q43.4531 34.8125 35.5 34.8125
z

M19.6719 64.7969
L19.6719 42.8281
L34.2812 42.8281
Q41.5 42.8281 45.0312 45.5312
Q48.5781 48.25 48.5781 53.8125
Q48.5781 59.3281 45.0312 62.0625
Q41.5 64.7969 34.2812 64.7969
z

M9.8125 72.9062
L35.0156 72.9062
Q46.2969 72.9062 52.3906 68.2188
Q58.5 63.5312 58.5 54.8906
Q58.5 48.1875 55.375 44.2344
Q52.25 40.2812 46.1875 39.3125
Q53.4688 37.75 57.5 32.7812
Q61.5312 27.8281 61.5312 20.4062
Q61.5312 10.6406 54.8906 5.3125
Q48.25 0 35.9844 0
L9.8125 0
z
" id="BitstreamVeraSans-Roman-42"/>
     </defs>
     <g transform="translate(847.083397702 366.592159549)scale(0.12 -0.12)">
      <use xlink:href="#BitstreamVeraSans-Roman-52"/>
      <use x="69.482421875" xlink:href="#BitstreamVeraSans-Roman-50"/>
      <use x="129.78515625" xlink:href="#BitstreamVeraSans-Roman-4c"/>
      <use x="185.498046875" xlink:href="#BitstreamVeraSans-Roman-31"/>
      <use x="249.12109375" xlink:href="#BitstreamVeraSans-Roman-33"/>
      <use x="312.744140625" xlink:href="#BitstreamVeraSans-Roman-42"/>
     </g>
    </g>
   </g>
   <g id="text_12">
    <g clip-path="url(#pf9996adbd3)">
     <!-- RPL13A -->
     <g transform="translate(658.775061185 620.454107143)scale(0.12 -0.12)">
      <use xlink:href="#BitstreamVeraSans-Roman-52"/>
      <use x="69.482421875" xlink:href="#BitstreamVeraSans-Roman-50"/>
      <use x="129.78515625" xlink:href="#BitstreamVeraSans-Roman-4c"/>
      <use x="185.498046875" xlink:href="#BitstreamVeraSans-Roman-31"/>
      <use x="249.12109375" xlink:href="#BitstreamVeraSans-Roman-33"/>
      <use x="312.744140625" xlink:href="#BitstreamVeraSans-Roman-41"/>
     </g>
    </g>
   </g>
   <g id="text_13">
    <g clip-path="url(#pf9996adbd3)">
     <!-- MOT2 -->
     <defs>
      <path d="
M19.1875 8.29688
L53.6094 8.29688
L53.6094 0
L7.32812 0
L7.32812 8.29688
Q12.9375 14.1094 22.625 23.8906
Q32.3281 33.6875 34.8125 36.5312
Q39.5469 41.8438 41.4219 45.5312
Q43.3125 49.2188 43.3125 52.7812
Q43.3125 58.5938 39.2344 62.25
Q35.1562 65.9219 28.6094 65.9219
Q23.9688 65.9219 18.8125 64.3125
Q13.6719 62.7031 7.8125 59.4219
L7.8125 69.3906
Q13.7656 71.7812 18.9375 73
Q24.125 74.2188 28.4219 74.2188
Q39.75 74.2188 46.4844 68.5469
Q53.2188 62.8906 53.2188 53.4219
Q53.2188 48.9219 51.5312 44.8906
Q49.8594 40.875 45.4062 35.4062
Q44.1875 33.9844 37.6406 27.2188
Q31.1094 20.4531 19.1875 8.29688" id="BitstreamVeraSans-Roman-32"/>
      <path d="
M-0.296875 72.9062
L61.375 72.9062
L61.375 64.5938
L35.5 64.5938
L35.5 0
L25.5938 0
L25.5938 64.5938
L-0.296875 64.5938
z
" id="BitstreamVeraSans-Roman-54"/>
     </defs>
     <g transform="translate(1510.48364271 383.74466474)scale(0.12 -0.12)">
      <use xlink:href="#BitstreamVeraSans-Roman-4d"/>
      <use x="86.279296875" xlink:href="#BitstreamVeraSans-Roman-4f"/>
      <use x="164.990234375" xlink:href="#BitstreamVeraSans-Roman-54"/>
      <use x="226.07421875" xlink:href="#BitstreamVeraSans-Roman-32"/>
     </g>
    </g>
   </g>
   <g id="text_14">
    <g clip-path="url(#pf9996adbd3)">
     <!-- SBP1 -->
     <g transform="translate(1232.37315562 583.31858938)scale(0.12 -0.12)">
      <use xlink:href="#BitstreamVeraSans-Roman-53"/>
      <use x="63.4765625" xlink:href="#BitstreamVeraSans-Roman-42"/>
      <use x="132.080078125" xlink:href="#BitstreamVeraSans-Roman-50"/>
      <use x="192.3828125" xlink:href="#BitstreamVeraSans-Roman-31"/>
     </g>
    </g>
   </g>
   <g id="text_15">
    <g clip-path="url(#pf9996adbd3)">
     <!-- None -->
     <g transform="translate(279.206715573 237.718176405)scale(0.12 -0.12)">
      <use xlink:href="#BitstreamVeraSans-Roman-4e"/>
      <use x="74.8046875" xlink:href="#BitstreamVeraSans-Roman-6f"/>
      <use x="135.986328125" xlink:href="#BitstreamVeraSans-Roman-6e"/>
      <use x="199.365234375" xlink:href="#BitstreamVeraSans-Roman-65"/>
     </g>
    </g>
   </g>
   <g id="text_16">
    <g clip-path="url(#pf9996adbd3)">
     <!-- RNA-binding protein required for the assembly of box H/ACA snoRNPs -->
     <defs>
      <path d="
M52 44.1875
Q55.375 50.25 60.0625 53.125
Q64.75 56 71.0938 56
Q79.6406 56 84.2812 50.0156
Q88.9219 44.0469 88.9219 33.0156
L88.9219 0
L79.8906 0
L79.8906 32.7188
Q79.8906 40.5781 77.0938 44.375
Q74.3125 48.1875 68.6094 48.1875
Q61.625 48.1875 57.5625 43.5469
Q53.5156 38.9219 53.5156 30.9062
L53.5156 0
L44.4844 0
L44.4844 32.7188
Q44.4844 40.625 41.7031 44.4062
Q38.9219 48.1875 33.1094 48.1875
Q26.2188 48.1875 22.1562 43.5312
Q18.1094 38.875 18.1094 30.9062
L18.1094 0
L9.07812 0
L9.07812 54.6875
L18.1094 54.6875
L18.1094 46.1875
Q21.1875 51.2188 25.4844 53.6094
Q29.7812 56 35.6875 56
Q41.6562 56 45.8281 52.9688
Q50 49.9531 52 44.1875" id="BitstreamVeraSans-Roman-6d"/>
      <path d="
M54.8906 54.6875
L35.1094 28.0781
L55.9062 0
L45.3125 0
L29.3906 21.4844
L13.4844 0
L2.875 0
L24.125 28.6094
L4.6875 54.6875
L15.2812 54.6875
L29.7812 35.2031
L44.2812 54.6875
z
" id="BitstreamVeraSans-Roman-78"/>
      <path d="
M25.3906 72.9062
L33.6875 72.9062
L8.29688 -9.28125
L0 -9.28125
z
" id="BitstreamVeraSans-Roman-2f"/>
      <path d="
M9.8125 72.9062
L19.6719 72.9062
L19.6719 43.0156
L55.5156 43.0156
L55.5156 72.9062
L65.375 72.9062
L65.375 0
L55.5156 0
L55.5156 34.7188
L19.6719 34.7188
L19.6719 0
L9.8125 0
z
" id="BitstreamVeraSans-Roman-48"/>
      <path d="
M45.4062 46.3906
L45.4062 75.9844
L54.3906 75.9844
L54.3906 0
L45.4062 0
L45.4062 8.20312
Q42.5781 3.32812 38.25 0.953125
Q33.9375 -1.42188 27.875 -1.42188
Q17.9688 -1.42188 11.7344 6.48438
Q5.51562 14.4062 5.51562 27.2969
Q5.51562 40.1875 11.7344 48.0938
Q17.9688 56 27.875 56
Q33.9375 56 38.25 53.625
Q42.5781 51.2656 45.4062 46.3906
M14.7969 27.2969
Q14.7969 17.3906 18.875 11.75
Q22.9531 6.10938 30.0781 6.10938
Q37.2031 6.10938 41.2969 11.75
Q45.4062 17.3906 45.4062 27.2969
Q45.4062 37.2031 41.2969 42.8438
Q37.2031 48.4844 30.0781 48.4844
Q22.9531 48.4844 18.875 42.8438
Q14.7969 37.2031 14.7969 27.2969" id="BitstreamVeraSans-Roman-64"/>
      <path d="
M45.4062 27.9844
Q45.4062 37.75 41.375 43.1094
Q37.3594 48.4844 30.0781 48.4844
Q22.8594 48.4844 18.8281 43.1094
Q14.7969 37.75 14.7969 27.9844
Q14.7969 18.2656 18.8281 12.8906
Q22.8594 7.51562 30.0781 7.51562
Q37.3594 7.51562 41.375 12.8906
Q45.4062 18.2656 45.4062 27.9844
M54.3906 6.78125
Q54.3906 -7.17188 48.1875 -13.9844
Q42 -20.7969 29.2031 -20.7969
Q24.4688 -20.7969 20.2656 -20.0938
Q16.0625 -19.3906 12.1094 -17.9219
L12.1094 -9.1875
Q16.0625 -11.3281 19.9219 -12.3438
Q23.7812 -13.375 27.7812 -13.375
Q36.625 -13.375 41.0156 -8.76562
Q45.4062 -4.15625 45.4062 5.17188
L45.4062 9.625
Q42.625 4.78125 38.2812 2.39062
Q33.9375 0 27.875 0
Q17.8281 0 11.6719 7.65625
Q5.51562 15.3281 5.51562 27.9844
Q5.51562 40.6719 11.6719 48.3281
Q17.8281 56 27.875 56
Q33.9375 56 38.2812 53.6094
Q42.625 51.2188 45.4062 46.3906
L45.4062 54.6875
L54.3906 54.6875
z
" id="BitstreamVeraSans-Roman-67"/>
      <path d="
M48.6875 27.2969
Q48.6875 37.2031 44.6094 42.8438
Q40.5312 48.4844 33.4062 48.4844
Q26.2656 48.4844 22.1875 42.8438
Q18.1094 37.2031 18.1094 27.2969
Q18.1094 17.3906 22.1875 11.75
Q26.2656 6.10938 33.4062 6.10938
Q40.5312 6.10938 44.6094 11.75
Q48.6875 17.3906 48.6875 27.2969
M18.1094 46.3906
Q20.9531 51.2656 25.2656 53.625
Q29.5938 56 35.5938 56
Q45.5625 56 51.7812 48.0938
Q58.0156 40.1875 58.0156 27.2969
Q58.0156 14.4062 51.7812 6.48438
Q45.5625 -1.42188 35.5938 -1.42188
Q29.5938 -1.42188 25.2656 0.953125
Q20.9531 3.32812 18.1094 8.20312
L18.1094 0
L9.07812 0
L9.07812 75.9844
L18.1094 75.9844
z
" id="BitstreamVeraSans-Roman-62"/>
      <path d="
M44.2812 53.0781
L44.2812 44.5781
Q40.4844 46.5312 36.375 47.5
Q32.2812 48.4844 27.875 48.4844
Q21.1875 48.4844 17.8438 46.4375
Q14.5 44.3906 14.5 40.2812
Q14.5 37.1562 16.8906 35.375
Q19.2812 33.5938 26.5156 31.9844
L29.5938 31.2969
Q39.1562 29.25 43.1875 25.5156
Q47.2188 21.7812 47.2188 15.0938
Q47.2188 7.46875 41.1875 3.01562
Q35.1562 -1.42188 24.6094 -1.42188
Q20.2188 -1.42188 15.4531 -0.5625
Q10.6875 0.296875 5.42188 2
L5.42188 11.2812
Q10.4062 8.6875 15.2344 7.39062
Q20.0625 6.10938 24.8125 6.10938
Q31.1562 6.10938 34.5625 8.28125
Q37.9844 10.4531 37.9844 14.4062
Q37.9844 18.0625 35.5156 20.0156
Q33.0625 21.9688 24.7031 23.7812
L21.5781 24.5156
Q13.2344 26.2656 9.51562 29.9062
Q5.8125 33.5469 5.8125 39.8906
Q5.8125 47.6094 11.2812 51.7969
Q16.75 56 26.8125 56
Q31.7812 56 36.1719 55.2656
Q40.5781 54.5469 44.2812 53.0781" id="BitstreamVeraSans-Roman-73"/>
      <path d="
M14.7969 27.2969
Q14.7969 17.3906 18.875 11.75
Q22.9531 6.10938 30.0781 6.10938
Q37.2031 6.10938 41.2969 11.75
Q45.4062 17.3906 45.4062 27.2969
Q45.4062 37.2031 41.2969 42.8438
Q37.2031 48.4844 30.0781 48.4844
Q22.9531 48.4844 18.875 42.8438
Q14.7969 37.2031 14.7969 27.2969
M45.4062 8.20312
Q42.5781 3.32812 38.25 0.953125
Q33.9375 -1.42188 27.875 -1.42188
Q17.9688 -1.42188 11.7344 6.48438
Q5.51562 14.4062 5.51562 27.2969
Q5.51562 40.1875 11.7344 48.0938
Q17.9688 56 27.875 56
Q33.9375 56 38.25 53.625
Q42.5781 51.2656 45.4062 46.3906
L45.4062 54.6875
L54.3906 54.6875
L54.3906 -20.7969
L45.4062 -20.7969
z
" id="BitstreamVeraSans-Roman-71"/>
     </defs>
     <g style="fill:#008000;" transform="translate(1104.20901658 130.190933894)scale(0.12 -0.12)">
      <use xlink:href="#BitstreamVeraSans-Roman-52"/>
      <use x="69.482421875" xlink:href="#BitstreamVeraSans-Roman-4e"/>
      <use x="144.287109375" xlink:href="#BitstreamVeraSans-Roman-41"/>
      <use x="210.4453125" xlink:href="#BitstreamVeraSans-Roman-2d"/>
      <use x="246.529296875" xlink:href="#BitstreamVeraSans-Roman-62"/>
      <use x="310.005859375" xlink:href="#BitstreamVeraSans-Roman-69"/>
      <use x="337.7890625" xlink:href="#BitstreamVeraSans-Roman-6e"/>
      <use x="401.16796875" xlink:href="#BitstreamVeraSans-Roman-64"/>
      <use x="464.64453125" xlink:href="#BitstreamVeraSans-Roman-69"/>
      <use x="492.427734375" xlink:href="#BitstreamVeraSans-Roman-6e"/>
      <use x="555.806640625" xlink:href="#BitstreamVeraSans-Roman-67"/>
      <use x="619.283203125" xlink:href="#BitstreamVeraSans-Roman-20"/>
      <use x="651.0703125" xlink:href="#BitstreamVeraSans-Roman-70"/>
      <use x="714.546875" xlink:href="#BitstreamVeraSans-Roman-72"/>
      <use x="753.41015625" xlink:href="#BitstreamVeraSans-Roman-6f"/>
      <use x="814.591796875" xlink:href="#BitstreamVeraSans-Roman-74"/>
      <use x="853.80078125" xlink:href="#BitstreamVeraSans-Roman-65"/>
      <use x="915.32421875" xlink:href="#BitstreamVeraSans-Roman-69"/>
      <use x="943.107421875" xlink:href="#BitstreamVeraSans-Roman-6e"/>
      <use x="1006.48632812" xlink:href="#BitstreamVeraSans-Roman-20"/>
      <use x="1038.2734375" xlink:href="#BitstreamVeraSans-Roman-72"/>
      <use x="1077.13671875" xlink:href="#BitstreamVeraSans-Roman-65"/>
      <use x="1138.66015625" xlink:href="#BitstreamVeraSans-Roman-71"/>
      <use x="1202.13671875" xlink:href="#BitstreamVeraSans-Roman-75"/>
      <use x="1265.515625" xlink:href="#BitstreamVeraSans-Roman-69"/>
      <use x="1293.29882812" xlink:href="#BitstreamVeraSans-Roman-72"/>
      <use x="1332.16210938" xlink:href="#BitstreamVeraSans-Roman-65"/>
      <use x="1393.68554688" xlink:href="#BitstreamVeraSans-Roman-64"/>
      <use x="1457.16210938" xlink:href="#BitstreamVeraSans-Roman-20"/>
      <use x="1488.94921875" xlink:href="#BitstreamVeraSans-Roman-66"/>
      <use x="1524.15429688" xlink:href="#BitstreamVeraSans-Roman-6f"/>
      <use x="1585.3359375" xlink:href="#BitstreamVeraSans-Roman-72"/>
      <use x="1626.44921875" xlink:href="#BitstreamVeraSans-Roman-20"/>
      <use x="1658.23632812" xlink:href="#BitstreamVeraSans-Roman-74"/>
      <use x="1697.4453125" xlink:href="#BitstreamVeraSans-Roman-68"/>
      <use x="1760.82421875" xlink:href="#BitstreamVeraSans-Roman-65"/>
      <use x="1822.34765625" xlink:href="#BitstreamVeraSans-Roman-20"/>
      <use x="1854.13476562" xlink:href="#BitstreamVeraSans-Roman-61"/>
      <use x="1915.4140625" xlink:href="#BitstreamVeraSans-Roman-73"/>
      <use x="1967.51367188" xlink:href="#BitstreamVeraSans-Roman-73"/>
      <use x="2019.61328125" xlink:href="#BitstreamVeraSans-Roman-65"/>
      <use x="2081.13671875" xlink:href="#BitstreamVeraSans-Roman-6d"/>
      <use x="2178.54882812" xlink:href="#BitstreamVeraSans-Roman-62"/>
      <use x="2242.02539062" xlink:href="#BitstreamVeraSans-Roman-6c"/>
      <use x="2269.80859375" xlink:href="#BitstreamVeraSans-Roman-79"/>
      <use x="2328.98828125" xlink:href="#BitstreamVeraSans-Roman-20"/>
      <use x="2360.77539062" xlink:href="#BitstreamVeraSans-Roman-6f"/>
      <use x="2421.95703125" xlink:href="#BitstreamVeraSans-Roman-66"/>
      <use x="2457.16210938" xlink:href="#BitstreamVeraSans-Roman-20"/>
      <use x="2488.94921875" xlink:href="#BitstreamVeraSans-Roman-62"/>
      <use x="2552.42578125" xlink:href="#BitstreamVeraSans-Roman-6f"/>
      <use x="2610.48242188" xlink:href="#BitstreamVeraSans-Roman-78"/>
      <use x="2669.66210938" xlink:href="#BitstreamVeraSans-Roman-20"/>
      <use x="2701.44921875" xlink:href="#BitstreamVeraSans-Roman-48"/>
      <use x="2776.64453125" xlink:href="#BitstreamVeraSans-Roman-2f"/>
      <use x="2810.3359375" xlink:href="#BitstreamVeraSans-Roman-41"/>
      <use x="2876.99414062" xlink:href="#BitstreamVeraSans-Roman-43"/>
      <use x="2946.81835938" xlink:href="#BitstreamVeraSans-Roman-41"/>
      <use x="3015.2265625" xlink:href="#BitstreamVeraSans-Roman-20"/>
      <use x="3047.01367188" xlink:href="#BitstreamVeraSans-Roman-73"/>
      <use x="3099.11328125" xlink:href="#BitstreamVeraSans-Roman-6e"/>
      <use x="3162.4921875" xlink:href="#BitstreamVeraSans-Roman-6f"/>
      <use x="3223.67382812" xlink:href="#BitstreamVeraSans-Roman-52"/>
      <use x="3293.15625" xlink:href="#BitstreamVeraSans-Roman-4e"/>
      <use x="3367.9609375" xlink:href="#BitstreamVeraSans-Roman-50"/>
      <use x="3426.51367188" xlink:href="#BitstreamVeraSans-Roman-73"/>
     </g>
    </g>
   </g>
   <g id="text_17">
    <g clip-path="url(#pf9996adbd3)">
     <!-- Essential Fe-S protein -->
     <defs>
      <path d="
M9.8125 72.9062
L55.9062 72.9062
L55.9062 64.5938
L19.6719 64.5938
L19.6719 43.0156
L54.3906 43.0156
L54.3906 34.7188
L19.6719 34.7188
L19.6719 8.29688
L56.7812 8.29688
L56.7812 0
L9.8125 0
z
" id="BitstreamVeraSans-Roman-45"/>
     </defs>
     <g style="fill:#008000;" transform="translate(698.398726329 65.0255357143)scale(0.12 -0.12)">
      <use xlink:href="#BitstreamVeraSans-Roman-45"/>
      <use x="63.18359375" xlink:href="#BitstreamVeraSans-Roman-73"/>
      <use x="115.283203125" xlink:href="#BitstreamVeraSans-Roman-73"/>
      <use x="167.3828125" xlink:href="#BitstreamVeraSans-Roman-65"/>
      <use x="228.90625" xlink:href="#BitstreamVeraSans-Roman-6e"/>
      <use x="292.28515625" xlink:href="#BitstreamVeraSans-Roman-74"/>
      <use x="331.494140625" xlink:href="#BitstreamVeraSans-Roman-69"/>
      <use x="359.27734375" xlink:href="#BitstreamVeraSans-Roman-61"/>
      <use x="420.556640625" xlink:href="#BitstreamVeraSans-Roman-6c"/>
      <use x="448.33984375" xlink:href="#BitstreamVeraSans-Roman-20"/>
      <use x="480.126953125" xlink:href="#BitstreamVeraSans-Roman-46"/>
      <use x="532.146484375" xlink:href="#BitstreamVeraSans-Roman-65"/>
      <use x="593.669921875" xlink:href="#BitstreamVeraSans-Roman-2d"/>
      <use x="629.75390625" xlink:href="#BitstreamVeraSans-Roman-53"/>
      <use x="693.23046875" xlink:href="#BitstreamVeraSans-Roman-20"/>
      <use x="725.017578125" xlink:href="#BitstreamVeraSans-Roman-70"/>
      <use x="788.494140625" xlink:href="#BitstreamVeraSans-Roman-72"/>
      <use x="827.357421875" xlink:href="#BitstreamVeraSans-Roman-6f"/>
      <use x="888.5390625" xlink:href="#BitstreamVeraSans-Roman-74"/>
      <use x="927.748046875" xlink:href="#BitstreamVeraSans-Roman-65"/>
      <use x="989.271484375" xlink:href="#BitstreamVeraSans-Roman-69"/>
      <use x="1017.0546875" xlink:href="#BitstreamVeraSans-Roman-6e"/>
     </g>
    </g>
   </g>
   <g id="text_18">
    <g clip-path="url(#pf9996adbd3)">
     <!-- Nuclear pore protein -->
     <g style="fill:#008000;" transform="translate(195.916607143 424.918525465)scale(0.12 -0.12)">
      <use xlink:href="#BitstreamVeraSans-Roman-4e"/>
      <use x="74.8046875" xlink:href="#BitstreamVeraSans-Roman-75"/>
      <use x="138.18359375" xlink:href="#BitstreamVeraSans-Roman-63"/>
      <use x="193.1640625" xlink:href="#BitstreamVeraSans-Roman-6c"/>
      <use x="220.947265625" xlink:href="#BitstreamVeraSans-Roman-65"/>
      <use x="282.470703125" xlink:href="#BitstreamVeraSans-Roman-61"/>
      <use x="343.75" xlink:href="#BitstreamVeraSans-Roman-72"/>
      <use x="384.86328125" xlink:href="#BitstreamVeraSans-Roman-20"/>
      <use x="416.650390625" xlink:href="#BitstreamVeraSans-Roman-70"/>
      <use x="480.126953125" xlink:href="#BitstreamVeraSans-Roman-6f"/>
      <use x="541.30859375" xlink:href="#BitstreamVeraSans-Roman-72"/>
      <use x="580.171875" xlink:href="#BitstreamVeraSans-Roman-65"/>
      <use x="641.6953125" xlink:href="#BitstreamVeraSans-Roman-20"/>
      <use x="673.482421875" xlink:href="#BitstreamVeraSans-Roman-70"/>
      <use x="736.958984375" xlink:href="#BitstreamVeraSans-Roman-72"/>
      <use x="775.822265625" xlink:href="#BitstreamVeraSans-Roman-6f"/>
      <use x="837.00390625" xlink:href="#BitstreamVeraSans-Roman-74"/>
      <use x="876.212890625" xlink:href="#BitstreamVeraSans-Roman-65"/>
      <use x="937.736328125" xlink:href="#BitstreamVeraSans-Roman-69"/>
      <use x="965.51953125" xlink:href="#BitstreamVeraSans-Roman-6e"/>
     </g>
    </g>
   </g>
   <g id="text_19">
    <g clip-path="url(#pf9996adbd3)">
     <!-- Ubiquitin-protein ligase subunit of the CCR4-NOT complex -->
     <defs>
      <path d="
M8.6875 72.9062
L18.6094 72.9062
L18.6094 28.6094
Q18.6094 16.8906 22.8438 11.7344
Q27.0938 6.59375 36.625 6.59375
Q46.0938 6.59375 50.3438 11.7344
Q54.5938 16.8906 54.5938 28.6094
L54.5938 72.9062
L64.5 72.9062
L64.5 27.3906
Q64.5 13.1406 57.4375 5.85938
Q50.3906 -1.42188 36.625 -1.42188
Q22.7969 -1.42188 15.7344 5.85938
Q8.6875 13.1406 8.6875 27.3906
z
" id="BitstreamVeraSans-Roman-55"/>
      <path d="
M37.7969 64.3125
L12.8906 25.3906
L37.7969 25.3906
z

M35.2031 72.9062
L47.6094 72.9062
L47.6094 25.3906
L58.0156 25.3906
L58.0156 17.1875
L47.6094 17.1875
L47.6094 0
L37.7969 0
L37.7969 17.1875
L4.89062 17.1875
L4.89062 26.7031
z
" id="BitstreamVeraSans-Roman-34"/>
     </defs>
     <g style="fill:#008000;" transform="translate(1352.51020521 342.601807597)scale(0.12 -0.12)">
      <use xlink:href="#BitstreamVeraSans-Roman-55"/>
      <use x="73.193359375" xlink:href="#BitstreamVeraSans-Roman-62"/>
      <use x="136.669921875" xlink:href="#BitstreamVeraSans-Roman-69"/>
      <use x="164.453125" xlink:href="#BitstreamVeraSans-Roman-71"/>
      <use x="227.9296875" xlink:href="#BitstreamVeraSans-Roman-75"/>
      <use x="291.30859375" xlink:href="#BitstreamVeraSans-Roman-69"/>
      <use x="319.091796875" xlink:href="#BitstreamVeraSans-Roman-74"/>
      <use x="358.30078125" xlink:href="#BitstreamVeraSans-Roman-69"/>
      <use x="386.083984375" xlink:href="#BitstreamVeraSans-Roman-6e"/>
      <use x="449.462890625" xlink:href="#BitstreamVeraSans-Roman-2d"/>
      <use x="485.546875" xlink:href="#BitstreamVeraSans-Roman-70"/>
      <use x="549.0234375" xlink:href="#BitstreamVeraSans-Roman-72"/>
      <use x="587.88671875" xlink:href="#BitstreamVeraSans-Roman-6f"/>
      <use x="649.068359375" xlink:href="#BitstreamVeraSans-Roman-74"/>
      <use x="688.27734375" xlink:href="#BitstreamVeraSans-Roman-65"/>
      <use x="749.80078125" xlink:href="#BitstreamVeraSans-Roman-69"/>
      <use x="777.583984375" xlink:href="#BitstreamVeraSans-Roman-6e"/>
      <use x="840.962890625" xlink:href="#BitstreamVeraSans-Roman-20"/>
      <use x="872.75" xlink:href="#BitstreamVeraSans-Roman-6c"/>
      <use x="900.533203125" xlink:href="#BitstreamVeraSans-Roman-69"/>
      <use x="928.31640625" xlink:href="#BitstreamVeraSans-Roman-67"/>
      <use x="991.79296875" xlink:href="#BitstreamVeraSans-Roman-61"/>
      <use x="1053.07226562" xlink:href="#BitstreamVeraSans-Roman-73"/>
      <use x="1105.171875" xlink:href="#BitstreamVeraSans-Roman-65"/>
      <use x="1166.6953125" xlink:href="#BitstreamVeraSans-Roman-20"/>
      <use x="1198.48242188" xlink:href="#BitstreamVeraSans-Roman-73"/>
      <use x="1250.58203125" xlink:href="#BitstreamVeraSans-Roman-75"/>
      <use x="1313.9609375" xlink:href="#BitstreamVeraSans-Roman-62"/>
      <use x="1377.4375" xlink:href="#BitstreamVeraSans-Roman-75"/>
      <use x="1440.81640625" xlink:href="#BitstreamVeraSans-Roman-6e"/>
      <use x="1504.1953125" xlink:href="#BitstreamVeraSans-Roman-69"/>
      <use x="1531.97851562" xlink:href="#BitstreamVeraSans-Roman-74"/>
      <use x="1571.1875" xlink:href="#BitstreamVeraSans-Roman-20"/>
      <use x="1602.97460938" xlink:href="#BitstreamVeraSans-Roman-6f"/>
      <use x="1664.15625" xlink:href="#BitstreamVeraSans-Roman-66"/>
      <use x="1699.36132812" xlink:href="#BitstreamVeraSans-Roman-20"/>
      <use x="1731.1484375" xlink:href="#BitstreamVeraSans-Roman-74"/>
      <use x="1770.35742188" xlink:href="#BitstreamVeraSans-Roman-68"/>
      <use x="1833.73632812" xlink:href="#BitstreamVeraSans-Roman-65"/>
      <use x="1895.25976562" xlink:href="#BitstreamVeraSans-Roman-20"/>
      <use x="1927.046875" xlink:href="#BitstreamVeraSans-Roman-43"/>
      <use x="1996.87109375" xlink:href="#BitstreamVeraSans-Roman-43"/>
      <use x="2066.6953125" xlink:href="#BitstreamVeraSans-Roman-52"/>
      <use x="2136.17773438" xlink:href="#BitstreamVeraSans-Roman-34"/>
      <use x="2199.80078125" xlink:href="#BitstreamVeraSans-Roman-2d"/>
      <use x="2235.88476562" xlink:href="#BitstreamVeraSans-Roman-4e"/>
      <use x="2310.68945312" xlink:href="#BitstreamVeraSans-Roman-4f"/>
      <use x="2389.40039062" xlink:href="#BitstreamVeraSans-Roman-54"/>
      <use x="2450.484375" xlink:href="#BitstreamVeraSans-Roman-20"/>
      <use x="2482.27148438" xlink:href="#BitstreamVeraSans-Roman-63"/>
      <use x="2537.25195312" xlink:href="#BitstreamVeraSans-Roman-6f"/>
      <use x="2598.43359375" xlink:href="#BitstreamVeraSans-Roman-6d"/>
      <use x="2695.84570312" xlink:href="#BitstreamVeraSans-Roman-70"/>
      <use x="2759.32226562" xlink:href="#BitstreamVeraSans-Roman-6c"/>
      <use x="2787.10546875" xlink:href="#BitstreamVeraSans-Roman-65"/>
      <use x="2846.87890625" xlink:href="#BitstreamVeraSans-Roman-78"/>
     </g>
    </g>
   </g>
   <g id="text_20">
    <g clip-path="url(#pf9996adbd3)">
     <!-- Ribosomal 60S subunit protein L13A -->
     <defs>
      <path d="
M31.7812 66.4062
Q24.1719 66.4062 20.3281 58.9062
Q16.5 51.4219 16.5 36.375
Q16.5 21.3906 20.3281 13.8906
Q24.1719 6.39062 31.7812 6.39062
Q39.4531 6.39062 43.2812 13.8906
Q47.125 21.3906 47.125 36.375
Q47.125 51.4219 43.2812 58.9062
Q39.4531 66.4062 31.7812 66.4062
M31.7812 74.2188
Q44.0469 74.2188 50.5156 64.5156
Q56.9844 54.8281 56.9844 36.375
Q56.9844 17.9688 50.5156 8.26562
Q44.0469 -1.42188 31.7812 -1.42188
Q19.5312 -1.42188 13.0625 8.26562
Q6.59375 17.9688 6.59375 36.375
Q6.59375 54.8281 13.0625 64.5156
Q19.5312 74.2188 31.7812 74.2188" id="BitstreamVeraSans-Roman-30"/>
      <path d="
M33.0156 40.375
Q26.375 40.375 22.4844 35.8281
Q18.6094 31.2969 18.6094 23.3906
Q18.6094 15.5312 22.4844 10.9531
Q26.375 6.39062 33.0156 6.39062
Q39.6562 6.39062 43.5312 10.9531
Q47.4062 15.5312 47.4062 23.3906
Q47.4062 31.2969 43.5312 35.8281
Q39.6562 40.375 33.0156 40.375
M52.5938 71.2969
L52.5938 62.3125
Q48.875 64.0625 45.0938 64.9844
Q41.3125 65.9219 37.5938 65.9219
Q27.8281 65.9219 22.6719 59.3281
Q17.5312 52.7344 16.7969 39.4062
Q19.6719 43.6562 24.0156 45.9219
Q28.375 48.1875 33.5938 48.1875
Q44.5781 48.1875 50.9531 41.5156
Q57.3281 34.8594 57.3281 23.3906
Q57.3281 12.1562 50.6875 5.35938
Q44.0469 -1.42188 33.0156 -1.42188
Q20.3594 -1.42188 13.6719 8.26562
Q6.98438 17.9688 6.98438 36.375
Q6.98438 53.6562 15.1875 63.9375
Q23.3906 74.2188 37.2031 74.2188
Q40.9219 74.2188 44.7031 73.4844
Q48.4844 72.75 52.5938 71.2969" id="BitstreamVeraSans-Roman-36"/>
     </defs>
     <g style="fill:#008000;" transform="translate(571.913811185 579.31125)scale(0.12 -0.12)">
      <use xlink:href="#BitstreamVeraSans-Roman-52"/>
      <use x="69.482421875" xlink:href="#BitstreamVeraSans-Roman-69"/>
      <use x="97.265625" xlink:href="#BitstreamVeraSans-Roman-62"/>
      <use x="160.7421875" xlink:href="#BitstreamVeraSans-Roman-6f"/>
      <use x="221.923828125" xlink:href="#BitstreamVeraSans-Roman-73"/>
      <use x="274.0234375" xlink:href="#BitstreamVeraSans-Roman-6f"/>
      <use x="335.205078125" xlink:href="#BitstreamVeraSans-Roman-6d"/>
      <use x="432.6171875" xlink:href="#BitstreamVeraSans-Roman-61"/>
      <use x="493.896484375" xlink:href="#BitstreamVeraSans-Roman-6c"/>
      <use x="521.6796875" xlink:href="#BitstreamVeraSans-Roman-20"/>
      <use x="553.466796875" xlink:href="#BitstreamVeraSans-Roman-36"/>
      <use x="617.08984375" xlink:href="#BitstreamVeraSans-Roman-30"/>
      <use x="680.712890625" xlink:href="#BitstreamVeraSans-Roman-53"/>
      <use x="744.189453125" xlink:href="#BitstreamVeraSans-Roman-20"/>
      <use x="775.9765625" xlink:href="#BitstreamVeraSans-Roman-73"/>
      <use x="828.076171875" xlink:href="#BitstreamVeraSans-Roman-75"/>
      <use x="891.455078125" xlink:href="#BitstreamVeraSans-Roman-62"/>
      <use x="954.931640625" xlink:href="#BitstreamVeraSans-Roman-75"/>
      <use x="1018.31054688" xlink:href="#BitstreamVeraSans-Roman-6e"/>
      <use x="1081.68945312" xlink:href="#BitstreamVeraSans-Roman-69"/>
      <use x="1109.47265625" xlink:href="#BitstreamVeraSans-Roman-74"/>
      <use x="1148.68164062" xlink:href="#BitstreamVeraSans-Roman-20"/>
      <use x="1180.46875" xlink:href="#BitstreamVeraSans-Roman-70"/>
      <use x="1243.9453125" xlink:href="#BitstreamVeraSans-Roman-72"/>
      <use x="1282.80859375" xlink:href="#BitstreamVeraSans-Roman-6f"/>
      <use x="1343.99023438" xlink:href="#BitstreamVeraSans-Roman-74"/>
      <use x="1383.19921875" xlink:href="#BitstreamVeraSans-Roman-65"/>
      <use x="1444.72265625" xlink:href="#BitstreamVeraSans-Roman-69"/>
      <use x="1472.50585938" xlink:href="#BitstreamVeraSans-Roman-6e"/>
      <use x="1535.88476562" xlink:href="#BitstreamVeraSans-Roman-20"/>
      <use x="1567.671875" xlink:href="#BitstreamVeraSans-Roman-4c"/>
      <use x="1623.38476562" xlink:href="#BitstreamVeraSans-Roman-31"/>
      <use x="1687.0078125" xlink:href="#BitstreamVeraSans-Roman-33"/>
      <use x="1750.63085938" xlink:href="#BitstreamVeraSans-Roman-41"/>
     </g>
    </g>
   </g>
   <g id="text_21">
    <g clip-path="url(#pf9996adbd3)">
     <!-- Protein that binds eIF4G and has a role in repression of translation -->
     <g style="fill:#008000;" transform="translate(1047.81971812 542.175732237)scale(0.12 -0.12)">
      <use xlink:href="#BitstreamVeraSans-Roman-50"/>
      <use x="58.552734375" xlink:href="#BitstreamVeraSans-Roman-72"/>
      <use x="97.416015625" xlink:href="#BitstreamVeraSans-Roman-6f"/>
      <use x="158.59765625" xlink:href="#BitstreamVeraSans-Roman-74"/>
      <use x="197.806640625" xlink:href="#BitstreamVeraSans-Roman-65"/>
      <use x="259.330078125" xlink:href="#BitstreamVeraSans-Roman-69"/>
      <use x="287.11328125" xlink:href="#BitstreamVeraSans-Roman-6e"/>
      <use x="350.4921875" xlink:href="#BitstreamVeraSans-Roman-20"/>
      <use x="382.279296875" xlink:href="#BitstreamVeraSans-Roman-74"/>
      <use x="421.48828125" xlink:href="#BitstreamVeraSans-Roman-68"/>
      <use x="484.8671875" xlink:href="#BitstreamVeraSans-Roman-61"/>
      <use x="546.146484375" xlink:href="#BitstreamVeraSans-Roman-74"/>
      <use x="585.35546875" xlink:href="#BitstreamVeraSans-Roman-20"/>
      <use x="617.142578125" xlink:href="#BitstreamVeraSans-Roman-62"/>
      <use x="680.619140625" xlink:href="#BitstreamVeraSans-Roman-69"/>
      <use x="708.40234375" xlink:href="#BitstreamVeraSans-Roman-6e"/>
      <use x="771.78125" xlink:href="#BitstreamVeraSans-Roman-64"/>
      <use x="835.2578125" xlink:href="#BitstreamVeraSans-Roman-73"/>
      <use x="887.357421875" xlink:href="#BitstreamVeraSans-Roman-20"/>
      <use x="919.14453125" xlink:href="#BitstreamVeraSans-Roman-65"/>
      <use x="980.66796875" xlink:href="#BitstreamVeraSans-Roman-49"/>
      <use x="1010.16015625" xlink:href="#BitstreamVeraSans-Roman-46"/>
      <use x="1067.6796875" xlink:href="#BitstreamVeraSans-Roman-34"/>
      <use x="1131.30273438" xlink:href="#BitstreamVeraSans-Roman-47"/>
      <use x="1208.79296875" xlink:href="#BitstreamVeraSans-Roman-20"/>
      <use x="1240.58007812" xlink:href="#BitstreamVeraSans-Roman-61"/>
      <use x="1301.859375" xlink:href="#BitstreamVeraSans-Roman-6e"/>
      <use x="1365.23828125" xlink:href="#BitstreamVeraSans-Roman-64"/>
      <use x="1428.71484375" xlink:href="#BitstreamVeraSans-Roman-20"/>
      <use x="1460.50195312" xlink:href="#BitstreamVeraSans-Roman-68"/>
      <use x="1523.88085938" xlink:href="#BitstreamVeraSans-Roman-61"/>
      <use x="1585.16015625" xlink:href="#BitstreamVeraSans-Roman-73"/>
      <use x="1637.25976562" xlink:href="#BitstreamVeraSans-Roman-20"/>
      <use x="1669.046875" xlink:href="#BitstreamVeraSans-Roman-61"/>
      <use x="1730.32617188" xlink:href="#BitstreamVeraSans-Roman-20"/>
      <use x="1762.11328125" xlink:href="#BitstreamVeraSans-Roman-72"/>
      <use x="1800.9765625" xlink:href="#BitstreamVeraSans-Roman-6f"/>
      <use x="1862.15820312" xlink:href="#BitstreamVeraSans-Roman-6c"/>
      <use x="1889.94140625" xlink:href="#BitstreamVeraSans-Roman-65"/>
      <use x="1951.46484375" xlink:href="#BitstreamVeraSans-Roman-20"/>
      <use x="1983.25195312" xlink:href="#BitstreamVeraSans-Roman-69"/>
      <use x="2011.03515625" xlink:href="#BitstreamVeraSans-Roman-6e"/>
      <use x="2074.4140625" xlink:href="#BitstreamVeraSans-Roman-20"/>
      <use x="2106.20117188" xlink:href="#BitstreamVeraSans-Roman-72"/>
      <use x="2145.06445312" xlink:href="#BitstreamVeraSans-Roman-65"/>
      <use x="2206.58789062" xlink:href="#BitstreamVeraSans-Roman-70"/>
      <use x="2270.06445312" xlink:href="#BitstreamVeraSans-Roman-72"/>
      <use x="2308.92773438" xlink:href="#BitstreamVeraSans-Roman-65"/>
      <use x="2370.45117188" xlink:href="#BitstreamVeraSans-Roman-73"/>
      <use x="2422.55078125" xlink:href="#BitstreamVeraSans-Roman-73"/>
      <use x="2474.65039062" xlink:href="#BitstreamVeraSans-Roman-69"/>
      <use x="2502.43359375" xlink:href="#BitstreamVeraSans-Roman-6f"/>
      <use x="2563.61523438" xlink:href="#BitstreamVeraSans-Roman-6e"/>
      <use x="2626.99414062" xlink:href="#BitstreamVeraSans-Roman-20"/>
      <use x="2658.78125" xlink:href="#BitstreamVeraSans-Roman-6f"/>
      <use x="2719.96289062" xlink:href="#BitstreamVeraSans-Roman-66"/>
      <use x="2755.16796875" xlink:href="#BitstreamVeraSans-Roman-20"/>
      <use x="2786.95507812" xlink:href="#BitstreamVeraSans-Roman-74"/>
      <use x="2826.1640625" xlink:href="#BitstreamVeraSans-Roman-72"/>
      <use x="2867.27734375" xlink:href="#BitstreamVeraSans-Roman-61"/>
      <use x="2928.55664062" xlink:href="#BitstreamVeraSans-Roman-6e"/>
      <use x="2991.93554688" xlink:href="#BitstreamVeraSans-Roman-73"/>
      <use x="3044.03515625" xlink:href="#BitstreamVeraSans-Roman-6c"/>
      <use x="3071.81835938" xlink:href="#BitstreamVeraSans-Roman-61"/>
      <use x="3133.09765625" xlink:href="#BitstreamVeraSans-Roman-74"/>
      <use x="3172.30664062" xlink:href="#BitstreamVeraSans-Roman-69"/>
      <use x="3200.08984375" xlink:href="#BitstreamVeraSans-Roman-6f"/>
      <use x="3261.27148438" xlink:href="#BitstreamVeraSans-Roman-6e"/>
     </g>
    </g>
   </g>
   <g id="text_22">
    <g clip-path="url(#pf9996adbd3)">
     <!-- Component of the eisosome with unknown function -->
     <defs>
      <path d="
M9.07812 75.9844
L18.1094 75.9844
L18.1094 31.1094
L44.9219 54.6875
L56.3906 54.6875
L27.3906 29.1094
L57.625 0
L45.9062 0
L18.1094 26.7031
L18.1094 0
L9.07812 0
z
" id="BitstreamVeraSans-Roman-6b"/>
     </defs>
     <g style="fill:#008000;" transform="translate(139.567028073 196.575319262)scale(0.12 -0.12)">
      <use xlink:href="#BitstreamVeraSans-Roman-43"/>
      <use x="69.82421875" xlink:href="#BitstreamVeraSans-Roman-6f"/>
      <use x="131.005859375" xlink:href="#BitstreamVeraSans-Roman-6d"/>
      <use x="228.41796875" xlink:href="#BitstreamVeraSans-Roman-70"/>
      <use x="291.89453125" xlink:href="#BitstreamVeraSans-Roman-6f"/>
      <use x="353.076171875" xlink:href="#BitstreamVeraSans-Roman-6e"/>
      <use x="416.455078125" xlink:href="#BitstreamVeraSans-Roman-65"/>
      <use x="477.978515625" xlink:href="#BitstreamVeraSans-Roman-6e"/>
      <use x="541.357421875" xlink:href="#BitstreamVeraSans-Roman-74"/>
      <use x="580.56640625" xlink:href="#BitstreamVeraSans-Roman-20"/>
      <use x="612.353515625" xlink:href="#BitstreamVeraSans-Roman-6f"/>
      <use x="673.53515625" xlink:href="#BitstreamVeraSans-Roman-66"/>
      <use x="708.740234375" xlink:href="#BitstreamVeraSans-Roman-20"/>
      <use x="740.52734375" xlink:href="#BitstreamVeraSans-Roman-74"/>
      <use x="779.736328125" xlink:href="#BitstreamVeraSans-Roman-68"/>
      <use x="843.115234375" xlink:href="#BitstreamVeraSans-Roman-65"/>
      <use x="904.638671875" xlink:href="#BitstreamVeraSans-Roman-20"/>
      <use x="936.42578125" xlink:href="#BitstreamVeraSans-Roman-65"/>
      <use x="997.94921875" xlink:href="#BitstreamVeraSans-Roman-69"/>
      <use x="1025.73242188" xlink:href="#BitstreamVeraSans-Roman-73"/>
      <use x="1077.83203125" xlink:href="#BitstreamVeraSans-Roman-6f"/>
      <use x="1139.01367188" xlink:href="#BitstreamVeraSans-Roman-73"/>
      <use x="1191.11328125" xlink:href="#BitstreamVeraSans-Roman-6f"/>
      <use x="1252.29492188" xlink:href="#BitstreamVeraSans-Roman-6d"/>
      <use x="1349.70703125" xlink:href="#BitstreamVeraSans-Roman-65"/>
      <use x="1411.23046875" xlink:href="#BitstreamVeraSans-Roman-20"/>
      <use x="1443.01757812" xlink:href="#BitstreamVeraSans-Roman-77"/>
      <use x="1524.8046875" xlink:href="#BitstreamVeraSans-Roman-69"/>
      <use x="1552.58789062" xlink:href="#BitstreamVeraSans-Roman-74"/>
      <use x="1591.796875" xlink:href="#BitstreamVeraSans-Roman-68"/>
      <use x="1655.17578125" xlink:href="#BitstreamVeraSans-Roman-20"/>
      <use x="1686.96289062" xlink:href="#BitstreamVeraSans-Roman-75"/>
      <use x="1750.34179688" xlink:href="#BitstreamVeraSans-Roman-6e"/>
      <use x="1813.72070312" xlink:href="#BitstreamVeraSans-Roman-6b"/>
      <use x="1871.63085938" xlink:href="#BitstreamVeraSans-Roman-6e"/>
      <use x="1935.00976562" xlink:href="#BitstreamVeraSans-Roman-6f"/>
      <use x="1996.19140625" xlink:href="#BitstreamVeraSans-Roman-77"/>
      <use x="2077.97851562" xlink:href="#BitstreamVeraSans-Roman-6e"/>
      <use x="2141.35742188" xlink:href="#BitstreamVeraSans-Roman-20"/>
      <use x="2173.14453125" xlink:href="#BitstreamVeraSans-Roman-66"/>
      <use x="2208.34960938" xlink:href="#BitstreamVeraSans-Roman-75"/>
      <use x="2271.72851562" xlink:href="#BitstreamVeraSans-Roman-6e"/>
      <use x="2335.10742188" xlink:href="#BitstreamVeraSans-Roman-63"/>
      <use x="2390.08789062" xlink:href="#BitstreamVeraSans-Roman-74"/>
      <use x="2429.296875" xlink:href="#BitstreamVeraSans-Roman-69"/>
      <use x="2457.08007812" xlink:href="#BitstreamVeraSans-Roman-6f"/>
      <use x="2518.26171875" xlink:href="#BitstreamVeraSans-Roman-6e"/>
     </g>
    </g>
   </g>
  </g>
 </g>
 <defs>
  <clipPath id="pf9996adbd3">
   <rect height="720.0" width="1800.0" x="0.0" y="0.0"/>
  </clipPath>
 </defs>
</svg>
